<mxfile host="app.diagrams.net" agent="Mozilla/5.0 (Windows NT 10.0; Win64; x64) AppleWebKit/537.36 (KHTML, like Gecko) Chrome/133.0.0.0 Safari/537.36" version="26.0.14">
  <diagram name="Page-1" id="eVLau46nry__J9ncSXWq">
    <mxGraphModel dx="1610" dy="591" grid="1" gridSize="10" guides="1" tooltips="1" connect="1" arrows="1" fold="1" page="1" pageScale="1" pageWidth="850" pageHeight="1100" math="0" shadow="0">
      <root>
        <mxCell id="0" />
        <mxCell id="1" parent="0" />
        <mxCell id="WizK_5J-Q8I4XotALdbM-12" value="«component»&lt;br&gt;&lt;b&gt;student&lt;/b&gt;" style="html=1;dropTarget=0;whiteSpace=wrap;" vertex="1" parent="1">
          <mxGeometry x="-110" y="600" width="180" height="90" as="geometry" />
        </mxCell>
        <mxCell id="WizK_5J-Q8I4XotALdbM-13" value="" style="shape=module;jettyWidth=8;jettyHeight=4;" vertex="1" parent="WizK_5J-Q8I4XotALdbM-12">
          <mxGeometry x="1" width="20" height="20" relative="1" as="geometry">
            <mxPoint x="-27" y="7" as="offset" />
          </mxGeometry>
        </mxCell>
        <mxCell id="WizK_5J-Q8I4XotALdbM-16" value="«component»&lt;br&gt;&lt;b&gt;course&lt;/b&gt;" style="html=1;dropTarget=0;whiteSpace=wrap;" vertex="1" parent="1">
          <mxGeometry x="220" y="600" width="180" height="90" as="geometry" />
        </mxCell>
        <mxCell id="WizK_5J-Q8I4XotALdbM-17" value="" style="shape=module;jettyWidth=8;jettyHeight=4;" vertex="1" parent="WizK_5J-Q8I4XotALdbM-16">
          <mxGeometry x="1" width="20" height="20" relative="1" as="geometry">
            <mxPoint x="-27" y="7" as="offset" />
          </mxGeometry>
        </mxCell>
        <mxCell id="WizK_5J-Q8I4XotALdbM-18" value="" style="shape=providedRequiredInterface;html=1;verticalLabelPosition=bottom;sketch=0;" vertex="1" parent="1">
          <mxGeometry x="140" y="630" width="20" height="20" as="geometry" />
        </mxCell>
        <mxCell id="WizK_5J-Q8I4XotALdbM-24" value="" style="html=1;points=[[0,0,0,0,5],[0,1,0,0,-5],[1,0,0,0,5],[1,1,0,0,-5]];perimeter=orthogonalPerimeter;outlineConnect=0;targetShapes=umlLifeline;portConstraint=eastwest;newEdgeStyle={&quot;curved&quot;:0,&quot;rounded&quot;:0};" vertex="1" parent="1">
          <mxGeometry x="70" y="620" width="10" height="40" as="geometry" />
        </mxCell>
        <mxCell id="WizK_5J-Q8I4XotALdbM-26" value="" style="html=1;points=[[0,0,0,0,5],[0,1,0,0,-5],[1,0,0,0,5],[1,1,0,0,-5]];perimeter=orthogonalPerimeter;outlineConnect=0;targetShapes=umlLifeline;portConstraint=eastwest;newEdgeStyle={&quot;curved&quot;:0,&quot;rounded&quot;:0};" vertex="1" parent="1">
          <mxGeometry x="210" y="620" width="10" height="40" as="geometry" />
        </mxCell>
        <mxCell id="WizK_5J-Q8I4XotALdbM-32" value="" style="line;strokeWidth=1;fillColor=none;align=left;verticalAlign=middle;spacingTop=-1;spacingLeft=3;spacingRight=3;rotatable=0;labelPosition=right;points=[];portConstraint=eastwest;strokeColor=inherit;" vertex="1" parent="1">
          <mxGeometry x="80" y="636" width="60" height="8" as="geometry" />
        </mxCell>
        <mxCell id="WizK_5J-Q8I4XotALdbM-33" value="" style="line;strokeWidth=1;fillColor=none;align=left;verticalAlign=middle;spacingTop=-1;spacingLeft=3;spacingRight=3;rotatable=0;labelPosition=right;points=[];portConstraint=eastwest;strokeColor=inherit;" vertex="1" parent="1">
          <mxGeometry x="160" y="636" width="50" height="8" as="geometry" />
        </mxCell>
        <mxCell id="WizK_5J-Q8I4XotALdbM-34" value="«component»&lt;br&gt;&lt;b&gt;instructor&lt;/b&gt;" style="html=1;dropTarget=0;whiteSpace=wrap;" vertex="1" parent="1">
          <mxGeometry x="-110" y="850" width="180" height="90" as="geometry" />
        </mxCell>
        <mxCell id="WizK_5J-Q8I4XotALdbM-35" value="" style="shape=module;jettyWidth=8;jettyHeight=4;" vertex="1" parent="WizK_5J-Q8I4XotALdbM-34">
          <mxGeometry x="1" width="20" height="20" relative="1" as="geometry">
            <mxPoint x="-27" y="7" as="offset" />
          </mxGeometry>
        </mxCell>
        <mxCell id="WizK_5J-Q8I4XotALdbM-36" value="«component»&lt;br&gt;&lt;b&gt;payment&lt;/b&gt;" style="html=1;dropTarget=0;whiteSpace=wrap;" vertex="1" parent="1">
          <mxGeometry x="230" y="850" width="180" height="90" as="geometry" />
        </mxCell>
        <mxCell id="WizK_5J-Q8I4XotALdbM-37" value="" style="shape=module;jettyWidth=8;jettyHeight=4;" vertex="1" parent="WizK_5J-Q8I4XotALdbM-36">
          <mxGeometry x="1" width="20" height="20" relative="1" as="geometry">
            <mxPoint x="-27" y="7" as="offset" />
          </mxGeometry>
        </mxCell>
        <mxCell id="WizK_5J-Q8I4XotALdbM-42" value="App server node" style="swimlane;whiteSpace=wrap;html=1;startSize=23;" vertex="1" parent="1">
          <mxGeometry x="480" y="600" width="240" height="210" as="geometry" />
        </mxCell>
        <mxCell id="WizK_5J-Q8I4XotALdbM-43" value="Application server" style="swimlane;whiteSpace=wrap;html=1;" vertex="1" parent="WizK_5J-Q8I4XotALdbM-42">
          <mxGeometry x="20" y="60" width="200" height="90" as="geometry" />
        </mxCell>
        <mxCell id="WizK_5J-Q8I4XotALdbM-44" value="Text" style="text;html=1;align=center;verticalAlign=middle;resizable=0;points=[];autosize=1;strokeColor=none;fillColor=none;" vertex="1" parent="1">
          <mxGeometry x="565" y="688" width="50" height="30" as="geometry" />
        </mxCell>
      </root>
    </mxGraphModel>
  </diagram>
</mxfile>
